# Blender v2.93.4 OBJ File: 'tower.blend'
# www.blender.org
mtllib tower.mtl
o tower
v 0.748220 2.000000 -0.748220
v 1.000000 0.000000 -1.000000
v 0.748220 2.000000 0.748220
v 1.000000 0.000000 1.000000
v -0.748220 2.000000 -0.748220
v -1.000000 0.000000 -1.000000
v -0.748220 2.000000 0.748220
v -1.000000 0.000000 1.000000
v 0.899828 2.200000 -0.899828
v 0.899828 2.200000 0.899828
v -0.899828 2.200000 -0.899828
v -0.899828 2.200000 0.899828
v 0.899828 2.700000 -0.899828
v 0.899828 2.700000 0.899828
v -0.899828 2.700000 -0.899828
v -0.899828 2.700000 0.899828
v 0.665850 2.700000 -0.665850
v 0.665850 2.700000 0.665850
v -0.665850 2.700000 -0.665850
v -0.665850 2.700000 0.665850
v 0.665850 2.200000 -0.665850
v 0.665850 2.200000 0.665850
v -0.665850 2.200000 -0.665850
v -0.665850 2.200000 0.665850
vt 0.625000 1.000000
vt 0.625000 0.750000
vt 0.625000 0.750000
vt 0.625000 1.000000
vt 0.375000 0.750000
vt 0.375000 1.000000
vt 0.375000 0.000000
vt 0.625000 0.000000
vt 0.625000 0.250000
vt 0.375000 0.250000
vt 0.125000 0.500000
vt 0.375000 0.500000
vt 0.125000 0.750000
vt 0.625000 0.500000
vt 0.625000 0.500000
vt 0.625000 0.250000
vt 0.625000 0.250000
vt 0.625000 0.500000
vt 0.625000 0.000000
vt 0.625000 0.000000
vt 0.625000 0.000000
vt 0.625000 0.250000
vt 0.625000 0.750000
vt 0.625000 1.000000
vt 0.625000 1.000000
vt 0.625000 0.750000
vt 0.625000 0.750000
vt 0.625000 1.000000
vt 0.625000 0.500000
vt 0.625000 0.500000
vt 0.875000 0.500000
vt 0.875000 0.750000
vt 0.625000 0.250000
vt 0.625000 0.000000
vn 0.0000 -0.6041 0.7969
vn 0.0000 0.1249 0.9922
vn -0.9922 0.1249 0.0000
vn 0.0000 -1.0000 0.0000
vn 0.9922 0.1249 0.0000
vn 0.0000 0.1249 -0.9922
vn 0.0000 0.0000 -1.0000
vn -0.7969 -0.6041 0.0000
vn 0.7969 -0.6041 0.0000
vn 0.0000 -0.6041 -0.7969
vn 0.0000 1.0000 0.0000
vn 1.0000 0.0000 0.0000
vn -1.0000 0.0000 0.0000
vn 0.0000 0.0000 1.0000
usemtl Material
s off
f 7/1/1 3/2/1 10/3/1 12/4/1
f 4/5/2 3/2/2 7/1/2 8/6/2
f 8/7/3 7/8/3 5/9/3 6/10/3
f 6/11/4 2/12/4 4/5/4 8/13/4
f 2/12/5 1/14/5 3/2/5 4/5/5
f 6/10/6 5/9/6 1/14/6 2/12/6
f 9/15/7 11/16/7 15/17/7 13/18/7
f 5/9/8 7/8/8 12/19/8 11/16/8
f 3/2/9 1/14/9 9/15/9 10/3/9
f 1/14/10 5/9/10 11/16/10 9/15/10
f 15/17/11 16/20/11 20/21/11 19/22/11
f 10/3/12 9/15/12 13/18/12 14/23/12
f 11/16/13 12/19/13 16/20/13 15/17/13
f 12/4/14 10/3/14 14/23/14 16/24/14
f 20/25/7 18/26/7 22/27/7 24/28/7
f 16/24/11 14/23/11 18/26/11 20/25/11
f 13/18/11 15/17/11 19/22/11 17/29/11
f 14/23/11 13/18/11 17/29/11 18/26/11
f 21/30/11 23/31/11 24/32/11 22/27/11
f 17/29/14 19/22/14 23/33/14 21/30/14
f 18/26/13 17/29/13 21/30/13 22/27/13
f 19/22/12 20/21/12 24/34/12 23/33/12
